<?xml version="1.0" encoding="utf-8"?>
<!-- Generator: Adobe Illustrator 20.1.0, SVG Export Plug-In . SVG Version: 6.00 Build 0)  -->
<svg version="1.1" id="Layer_1" xmlns="http://www.w3.org/2000/svg" xmlns:xlink="http://www.w3.org/1999/xlink" x="0px" y="0px"
	 viewBox="0 0 100 100" style="enable-background:new 0 0 100 100;" xml:space="preserve">
<style type="text/css">
	.st0{fill:#454545;}
</style>
<path id="zoom_out" class="st0" d="M96.9,85.1L73.2,65c-2.4-2.2-5.1-3.2-7.2-3.1c5.6-6.5,9-15,9-24.3C75,16.8,58.2,0,37.5,0
	S0,16.8,0,37.5S16.8,75,37.5,75c9.3,0,17.8-3.4,24.3-9c-0.1,2.1,0.9,4.7,3.1,7.2l20.1,23.7c3.4,3.8,9.1,4.2,12.5,0.7
	C101.1,94.2,100.7,88.5,96.9,85.1z M37.5,62.5c-13.8,0-25-11.2-25-25s11.2-25,25-25s25,11.2,25,25S51.3,62.5,37.5,62.5z M18.8,31.3
	h37.5v12.5H18.8V31.3z"/>
<path id="zoom_in" class="st0" d="M96.9,85.1L73.2,65c-2.4-2.2-5.1-3.2-7.2-3.1c5.6-6.5,9-15,9-24.3C75,16.8,58.2,0,37.5,0
	S0,16.8,0,37.5S16.8,75,37.5,75c9.3,0,17.8-3.4,24.3-9c-0.1,2.1,0.9,4.7,3.1,7.2l20.1,23.7c3.4,3.8,9.1,4.2,12.5,0.7
	C101.1,94.2,100.7,88.5,96.9,85.1z M37.5,62.5c-13.8,0-25-11.2-25-25s11.2-25,25-25s25,11.2,25,25S51.3,62.5,37.5,62.5z M43.8,18.8
	H31.3v12.5H18.8v12.5h12.5v12.5h12.5V43.8h12.5V31.3H43.8V18.8z"/>
<path id="reset" class="st0" d="M100,37.5H62.5l14-14c-7.1-7.1-16.5-11-26.5-11s-19.4,3.9-26.5,11S12.5,40,12.5,50s3.9,19.4,11,26.5
	s16.5,11,26.5,11s19.4-3.9,26.5-11c0.6-0.6,1.2-1.2,1.7-1.8l9.4,8.2C78.5,93.4,65,100,50,100C22.4,100,0,77.6,0,50S22.4,0,50,0
	c13.8,0,26.3,5.6,35.4,14.6L100,0V37.5z"/>
<path id="up" class="st0" d="M50,0L1.6,48.4h29V100h38.7V48.4h29L50,0z"/>
<path id="right" class="st0" d="M100,50L51.6,1.6v29H0v38.7h51.6v29L100,50z"/>
<path id="left" class="st0" d="M0,50l48.4,48.4v-29H100V30.6H48.4v-29L0,50z"/>
<path id="down" class="st0" d="M50,100l48.4-48.4h-29V0H30.6v51.6h-29L50,100z"/>
</svg>
